<svg width="37" height="47" viewBox="0 0 37 47" fill="none" xmlns="http://www.w3.org/2000/svg">
<g id="Group">
<path id="Vector" d="M27.5563 0.753386C27.4595 0.645232 23.973 0.796078 20.939 4.08909C17.905 7.37925 18.3718 11.1533 18.4401 11.25C18.5084 11.3468 22.7662 11.4976 25.4843 7.66956C28.2024 3.84147 27.6531 0.864386 27.5563 0.753386ZM36.9885 34.1474C36.8519 33.8742 30.3712 30.6352 30.9746 24.4078C31.5779 18.1776 35.7419 16.4699 35.8073 16.2849C35.8728 16.0999 34.1082 14.0364 32.2383 12.9919C30.8653 12.2554 29.3458 11.8335 27.7897 11.7566C27.4823 11.7481 26.415 11.4863 24.2206 12.0868C22.7748 12.4824 19.5159 13.7632 18.6194 13.8144C17.72 13.8657 15.0446 12.3287 12.1671 11.9217C10.3257 11.566 8.37319 12.2946 6.97573 12.8553C5.58111 13.4131 2.92849 15.0013 1.07279 19.2221C-0.782905 23.4401 0.187635 30.1229 0.882099 32.2006C1.57656 34.2755 2.66095 37.6766 4.50526 40.1585C6.14465 42.9591 8.31912 44.903 9.22704 45.5633C10.135 46.2236 12.6965 46.662 14.4725 45.754C15.9013 44.8774 18.4799 44.3736 19.4988 44.4106C20.5149 44.4476 22.5186 44.849 24.5707 45.9447C26.1959 46.5054 27.7328 46.272 29.2726 45.6459C30.8123 45.0169 33.0409 42.6318 35.6423 37.7962C36.6299 35.5477 37.0796 34.3324 36.9885 34.1474Z" fill="white"/>
<path id="Vector_2" d="M27.5563 0.753386C27.4595 0.645232 23.973 0.796078 20.939 4.08909C17.905 7.37925 18.3718 11.1533 18.4401 11.25C18.5084 11.3468 22.7662 11.4976 25.4843 7.66956C28.2024 3.84147 27.6531 0.864386 27.5563 0.753386ZM36.9885 34.1474C36.8519 33.8742 30.3712 30.6352 30.9746 24.4078C31.5779 18.1776 35.7419 16.4699 35.8073 16.2849C35.8728 16.0999 34.1082 14.0364 32.2383 12.9919C30.8653 12.2554 29.3458 11.8335 27.7897 11.7566C27.4823 11.7481 26.415 11.4863 24.2206 12.0868C22.7748 12.4824 19.5159 13.7632 18.6194 13.8144C17.72 13.8657 15.0446 12.3287 12.1671 11.9217C10.3257 11.566 8.37319 12.2946 6.97573 12.8553C5.58111 13.4131 2.92849 15.0013 1.07279 19.2221C-0.782905 23.4401 0.187635 30.1229 0.882099 32.2006C1.57656 34.2755 2.66095 37.6766 4.50526 40.1585C6.14465 42.9591 8.31912 44.903 9.22704 45.5633C10.135 46.2236 12.6965 46.662 14.4725 45.754C15.9013 44.8774 18.4799 44.3736 19.4988 44.4106C20.5149 44.4476 22.5186 44.849 24.5707 45.9447C26.1959 46.5054 27.7328 46.272 29.2726 45.6459C30.8123 45.0169 33.0409 42.6318 35.6423 37.7962C36.6299 35.5477 37.0796 34.3324 36.9885 34.1474Z" fill="white"/>
</g>
</svg>
