<svg width="50" height="50" viewBox="0 0 50 50" fill="none" xmlns="http://www.w3.org/2000/svg">
<rect x="0.5" y="0.5" width="49" height="49" stroke="#C6C3C3"/>
<path d="M31.0806 20.0069C31.9472 20.0069 32.6497 19.2846 32.6497 18.3937C32.6497 17.5028 31.9472 16.7806 31.0806 16.7806C30.214 16.7806 29.5115 17.5028 29.5115 18.3937C29.5115 19.2846 30.214 20.0069 31.0806 20.0069Z" fill="#B9B7B7"/>
<path d="M24.5965 18.2773C22.8111 18.2773 21.0989 19.0064 19.8364 20.3043C18.574 21.6021 17.8647 23.3624 17.8647 25.1979C17.8647 27.0333 18.574 28.7936 19.8364 30.0915C21.0989 31.3893 22.8111 32.1184 24.5965 32.1184C26.3819 32.1184 28.0942 31.3893 29.3566 30.0915C30.6191 28.7936 31.3283 27.0333 31.3283 25.1979C31.3283 23.3624 30.6191 21.6021 29.3566 20.3043C28.0942 19.0064 26.3819 18.2773 24.5965 18.2773ZM24.5965 29.6923C23.4366 29.6923 22.3243 29.2187 21.5041 28.3755C20.684 27.5323 20.2232 26.3888 20.2232 25.1964C20.2232 24.004 20.684 22.8604 21.5041 22.0172C22.3243 21.1741 23.4366 20.7004 24.5965 20.7004C25.7564 20.7004 26.8688 21.1741 27.6889 22.0172C28.5091 22.8604 28.9699 24.004 28.9699 25.1964C28.9699 26.3888 28.5091 27.5323 27.6889 28.3755C26.8688 29.2187 25.7564 29.6923 24.5965 29.6923Z" fill="#B9B7B7"/>
<path d="M37.5637 16.9393C37.2267 16.0446 36.7117 15.232 36.0516 14.5537C35.3915 13.8754 34.601 13.3462 33.7305 13.0001C32.7119 12.607 31.6358 12.3944 30.5481 12.3715C29.1461 12.3086 28.7021 12.2906 25.1469 12.2906C21.5918 12.2906 21.1361 12.2906 19.7458 12.3715C18.6588 12.3933 17.5835 12.6058 16.5662 13.0001C15.6956 13.3458 14.9048 13.8748 14.2447 14.5532C13.5845 15.2316 13.0697 16.0443 12.733 16.9393C12.3506 17.9864 12.1443 19.0927 12.123 20.211C12.0604 21.6508 12.0415 22.1073 12.0415 25.7636C12.0415 29.4185 12.0415 29.8839 12.123 31.3163C12.1449 32.4358 12.3501 33.5403 12.733 34.5895C13.0706 35.4841 13.586 36.2965 14.2463 36.9748C14.9066 37.6531 15.6972 38.1823 16.5677 38.5287C17.583 38.9376 18.6588 39.1653 19.7487 39.2022C21.1507 39.265 21.5947 39.2845 25.1498 39.2845C28.705 39.2845 29.1607 39.2845 30.551 39.2022C31.6386 39.1794 32.7147 38.9674 33.7334 38.5751C34.6037 38.2281 35.394 37.6985 36.054 37.02C36.714 36.3415 37.2292 35.529 37.5666 34.6344C37.9495 33.5867 38.1548 32.4822 38.1766 31.3627C38.2392 29.9229 38.2582 29.4664 38.2582 25.81C38.2582 22.1537 38.2582 21.6897 38.1766 20.2574C38.1597 19.1233 37.9523 18.0008 37.5637 16.9393ZM35.7905 31.2055C35.7811 32.068 35.628 32.9225 35.3378 33.7319C35.1191 34.3139 34.7844 34.8424 34.3552 35.2834C33.9259 35.7245 33.4116 36.0682 32.8454 36.2927C32.0668 36.5897 31.2445 36.7471 30.4141 36.7581C29.0311 36.824 28.6409 36.8404 25.0945 36.8404C21.5452 36.8404 21.1827 36.8404 19.7734 36.7581C18.9435 36.7477 18.1215 36.5902 17.3437 36.2927C16.7754 36.0696 16.2591 35.7265 15.828 35.2854C15.3969 34.8442 15.0607 34.315 14.8411 33.7319C14.5549 32.9312 14.4019 32.0868 14.3883 31.2339C14.3257 29.8121 14.3111 29.411 14.3111 25.7651C14.3111 22.1178 14.3111 21.7451 14.3883 20.2948C14.3977 19.4328 14.5509 18.5788 14.8411 17.7699C15.2851 16.5891 16.195 15.6596 17.3437 15.2076C18.1219 14.9115 18.9437 14.7541 19.7734 14.7422C21.1579 14.6778 21.5466 14.6599 25.0945 14.6599C28.6424 14.6599 29.0063 14.6599 30.4141 14.7422C31.2446 14.7525 32.067 14.9099 32.8454 15.2076C33.4116 15.4326 33.9258 15.7767 34.355 16.2179C34.7843 16.6592 35.119 17.1878 35.3378 17.7699C35.6239 18.5706 35.777 19.415 35.7905 20.2679C35.8531 21.6912 35.8691 22.0908 35.8691 25.7382C35.8691 29.3841 35.8691 29.7762 35.8065 31.207H35.7905V31.2055Z" fill="#B9B7B7"/>
</svg>
