<svg width="68" height="57" viewBox="0 0 68 57" fill="none" xmlns="http://www.w3.org/2000/svg">
<path id="Vector" d="M63.8158 36.7131V31.8C63.8158 27.2145 59.3554 23.6117 54.8951 23.6117C50.4347 23.6117 45.9743 27.2145 45.9743 31.8V36.7131C44.0627 36.7131 42.1511 38.6783 42.1511 40.6435V52.1072C42.1511 54.3999 44.0627 56.3652 45.9743 56.3652H63.4972C65.7274 56.3652 67.639 54.3999 67.639 52.4347V40.971C67.639 38.6783 65.7274 36.7131 63.8158 36.7131ZM59.674 36.7131H50.1161V31.8C50.1161 29.1798 52.3463 27.5421 54.8951 27.5421C57.4439 27.5421 59.674 29.1798 59.674 31.8V36.7131ZM35.8747 53.0898H7.10514C5.41519 53.0898 3.79445 52.3996 2.59947 51.1711C1.40449 49.9427 0.733154 48.2765 0.733154 46.5391V7.23491C0.733154 5.49756 1.40449 3.83136 2.59947 2.60287C3.79445 1.37437 5.41519 0.684211 7.10514 0.684211H58.081C61.6175 0.684211 64.453 3.59927 64.453 7.23491V20.4673C62.6052 19.0262 60.4705 17.9125 58.081 17.4212V13.7856H7.10514V23.6117H42.2785C40.5581 25.9699 39.6023 28.7867 39.6023 31.8V32.5861C37.3721 34.5513 35.7791 37.4991 35.7791 40.6435V52.1072C35.7791 52.4347 35.7791 52.7623 35.8747 53.0898Z" fill="#F31D1D"/>
</svg>
