<svg width="50" height="50" viewBox="0 0 50 50" fill="none" xmlns="http://www.w3.org/2000/svg">
<rect x="0.5" y="0.5" width="49" height="49" stroke="#C6C3C3"/>
<path d="M43.2556 16.4843C42.0263 17.0335 40.7256 17.3952 39.3946 17.5582C40.7934 16.7162 41.8453 15.3785 42.353 13.796C41.0306 14.591 39.5862 15.1488 38.0817 15.4455C37.4482 14.7629 36.6862 14.2199 35.8422 13.8495C34.9982 13.479 34.0897 13.2889 33.172 13.2907C29.4565 13.2907 26.4496 16.3369 26.4496 20.0921C26.447 20.6144 26.5052 21.1352 26.623 21.6433C23.9587 21.5149 21.3498 20.8162 18.9632 19.5918C16.5766 18.3675 14.4649 16.6445 12.7631 14.533C12.1661 15.5677 11.8504 16.7483 11.8489 17.9513C11.8489 20.3097 13.0458 22.3943 14.853 23.6157C13.7823 23.5895 12.7335 23.2982 11.7957 22.7664V22.8506C11.7957 26.1495 14.117 28.894 17.1894 29.5187C16.6117 29.677 16.0163 29.7572 15.4183 29.7573C14.9941 29.7581 14.5708 29.7157 14.1546 29.631C15.0087 32.3333 17.4946 34.2986 20.4393 34.3548C18.0465 36.2506 15.1088 37.2752 12.0879 37.2677C11.5516 37.2668 11.0159 37.234 10.4834 37.1694C13.5566 39.1868 17.129 40.2539 20.7752 40.2437C33.1577 40.2437 39.9224 29.8766 39.9224 20.8853C39.9224 20.5905 39.9149 20.2957 39.9012 20.0079C41.2142 19.0477 42.3501 17.8545 43.2556 16.4843Z" fill="#B9B7B7"/>
</svg>
