<svg width="50" height="57" viewBox="0 0 50 57" fill="none" xmlns="http://www.w3.org/2000/svg">
<rect x="0.5" y="7.5" width="49" height="49" stroke="#C6C3C3"/>
<path d="M39.2058 25.5726C39.0452 24.9589 38.7305 24.3994 38.2934 23.9501C37.8564 23.5007 37.3121 23.1773 36.7152 23.0121C34.5171 22.4005 25.6841 22.4005 25.6841 22.4005C25.6841 22.4005 16.8511 22.4005 14.6529 23.0121C14.056 23.1773 13.5118 23.5007 13.0747 23.9501C12.6376 24.3994 12.323 24.9589 12.1623 25.5726C11.7519 27.8772 11.5527 30.2164 11.5674 32.5593C11.5527 34.9023 11.7519 37.2414 12.1623 39.5461C12.323 40.1597 12.6376 40.7192 13.0747 41.1686C13.5118 41.6179 14.056 41.9414 14.6529 42.1065C16.8511 42.7181 25.6841 42.7181 25.6841 42.7181C25.6841 42.7181 34.5171 42.7181 36.7152 42.1065C37.3121 41.9414 37.8564 41.6179 38.2934 41.1686C38.7305 40.7192 39.0452 40.1597 39.2058 39.5461C39.6163 37.2414 39.8155 34.9023 39.8007 32.5593C39.8155 30.2164 39.6163 27.8772 39.2058 25.5726ZM22.8607 36.9131V28.2055L30.1913 32.5593L22.8607 36.9131Z" fill="#B9B7B7"/>
</svg>
